<svg xmlns="http://www.w3.org/2000/svg" viewBox="0 0 64 64" id="transportation"><path fill="#1379c2" d="M7.7 44.1H3.2c-1.2 0-2.2-1-2.2-2.3V30.4c0-3.1 2.5-5.8 5.6-5.8h3.3l4.4-9.7c.4-.8 1.2-1.3 2-1.3h24.1c1 0 1.8.6 2.1 1.5l4.3 9.6h6.7c5.3 0 9.4 4.5 9.4 9.8V42c0 1.2-1 2.3-2.3 2.3H7.7v-.2zm18.5-19.5v-6.5h-8.3l-3 6.5h11.3zm4.4-6.5v6.5h11.3l-3-6.5h-8.3z"></path><path d="M3.2 45.1c-1.8 0-3.2-1.4-3.2-3.2V30.4c0-3.6 2.9-6.8 6.6-6.8h2.7l4.1-9.1c.6-1.3 1.7-1.9 2.9-1.9h24.1c1.3 0 2.6.8 3 2.1l4 8.9h6.1c5.9 0 10.4 5 10.4 10.7v7.5c0 1.8-1.4 3.2-3.2 3.2-19.1.1-38.3.1-57.5.1zm57.6-1.9c.7 0 1.3-.6 1.3-1.3v-7.5c0-4.7-3.7-8.8-8.5-8.8h-7.3l-4.6-10.1v-.1c-.2-.5-.7-.8-1.2-.8H16.4c-.5 0-1 .3-1.2.8l-4.7 10.3h-4c-2.6 0-4.7 2.2-4.7 4.8V42c0 .7.6 1.3 1.3 1.3 19.3-.1 38.5-.1 57.7-.1zM25.2 23.6V19h-6.8l-2.1 4.6h8.9zm1.9-5.5v7.5H13.4l3.6-7.9.3-.6h9.9v1h-.1zm4.5.9v4.6h8.8l-2-4.6h-6.8zm-1.9 5.6v-7.5h9.9l.3.6 3.6 7.9H29.6l.1-1z"></path><path fill="#ffc810" d="M1 34.4v-4c0-.3 0-.6.1-.8h60.8c.8 1.4 1.2 3.1 1.2 4.8H1z"></path><path d="M0 34.4v-4.5c0-.2 0-.3.1-.5l.1-.8H62.3c1 1.9 1.6 3.6 1.6 5.8v1H0v-1zm1.9-3.9v2.9H62c-.1-1-.4-2-.8-2.9H1.9z"></path><path fill="#5d5e61" fill-rule="evenodd" d="M17.2 37.8c-3.5 0-6.3 2.8-6.3 6.3s2.8 6.3 6.3 6.3 6.3-2.8 6.3-6.3-2.8-6.3-6.3-6.3z" clip-rule="evenodd"></path><path d="M17.2 38.8c-3 0-5.3 2.4-5.3 5.3 0 3 2.4 5.3 5.3 5.3 3 0 5.3-2.4 5.3-5.3s-2.4-5.3-5.3-5.3zm0-2c4 0 7.3 3.3 7.3 7.3s-3.3 7.3-7.3 7.3-7.3-3.3-7.3-7.3 3.3-7.3 7.3-7.3z"></path><path fill="#e6e6e6" fill-rule="evenodd" d="M17.2 41.7c-1.3 0-2.4 1.1-2.4 2.4 0 1.3 1.1 2.4 2.4 2.4 1.3 0 2.4-1.1 2.4-2.4 0-1.3-1.1-2.4-2.4-2.4z" clip-rule="evenodd"></path><path d="M17.2 42.7c-.8 0-1.5.7-1.5 1.5s.7 1.5 1.5 1.5 1.5-.7 1.5-1.5c-.1-.9-.7-1.5-1.5-1.5zm0-2c1.9 0 3.4 1.5 3.4 3.4s-1.5 3.4-3.4 3.4-3.4-1.5-3.4-3.4c0-1.8 1.5-3.4 3.4-3.4z"></path><path fill="#5d5e61" fill-rule="evenodd" d="M46.5 37.8c-3.5 0-6.3 2.8-6.3 6.3s2.8 6.3 6.3 6.3 6.3-2.8 6.3-6.3-2.8-6.3-6.3-6.3z" clip-rule="evenodd"></path><path d="M46.5 38.8c-3 0-5.3 2.4-5.3 5.3 0 3 2.4 5.3 5.3 5.3 3 0 5.3-2.4 5.3-5.3s-2.4-5.3-5.3-5.3zm0-2c4 0 7.3 3.3 7.3 7.3s-3.3 7.3-7.3 7.3-7.3-3.3-7.3-7.3 3.3-7.3 7.3-7.3z"></path><path fill="#e6e6e6" fill-rule="evenodd" d="M14.9 24.6h11.3v-6.5h-8.4l-2.9 6.5z" clip-rule="evenodd"></path><path d="M16.4 23.6h8.8V19h-6.8l-2 4.6zm9.8 1.9H13.4l3.6-7.9.3-.6h9.9v8.5h-1z"></path><path fill="#e6e6e6" fill-rule="evenodd" d="M30.6 18.1v6.5h11.3L39 18.1h-8.4z" clip-rule="evenodd"></path><path d="M31.6 19v4.6h8.8l-2-4.6h-6.8zm-1.9 5.6v-7.5h9.9l.3.6 3.6 7.9H29.6l.1-1z"></path><path fill="#e6e6e6" fill-rule="evenodd" d="M46.5 41.7c-1.3 0-2.4 1.1-2.4 2.4 0 1.3 1.1 2.4 2.4 2.4 1.3 0 2.4-1.1 2.4-2.4 0-1.3-1.1-2.4-2.4-2.4z" clip-rule="evenodd"></path><path d="M46.5 42.7c-.8 0-1.5.7-1.5 1.5s.7 1.5 1.5 1.5S48 45 48 44.2c-.1-.9-.7-1.5-1.5-1.5zm0-2c1.9 0 3.4 1.5 3.4 3.4s-1.5 3.4-3.4 3.4-3.4-1.5-3.4-3.4c0-1.8 1.5-3.4 3.4-3.4z"></path></svg>